<?xml version="1.0" standalone="no"?>
<!DOCTYPE svg PUBLIC "-//W3C//DTD SVG 1.1//EN" "http://www.w3.org/Graphics/SVG/1.1/DTD/svg11.dtd" >
<svg xmlns="http://www.w3.org/2000/svg" xmlns:xlink="http://www.w3.org/1999/xlink" version="1.1">
<metadata></metadata>
<defs>
<font id="_.pingfang_scregular" horiz-adv-x="600" vert-adv-y="1000" >
<font-face units-per-em="1000" ascent="800" descent="-200" />
<missing-glyph horiz-adv-x="333" />
<glyph horiz-adv-x="0" vert-adv-y="0" />
<glyph horiz-adv-x="333" />
<glyph horiz-adv-x="0" />
<glyph horiz-adv-x="0" />
<glyph unicode="&#xd;" horiz-adv-x="333" />
<glyph unicode=" "  horiz-adv-x="333" />
<glyph unicode="&#x09;" horiz-adv-x="333" />
<glyph unicode="&#xa0;" horiz-adv-x="333" />
<glyph unicode="!" horiz-adv-x="333" d="M106 60q0 26 18 42q16 17 42 17q27 0 44 -17t17 -42q0 -26 -17 -43q-19 -17 -44 -17t-42 17q-18 18 -18 43zM120 714h93l-15 -522h-62z" />
<glyph unicode="&#x22;" horiz-adv-x="457" d="M60 483q78 51 84 129q-8 -2 -16 -2q-25 0 -44 16q-17 16 -17 42q0 28 17 44t44 16q72 0 72 -97q0 -129 -113 -191zM257 483q78 51 84 129q-8 -2 -16 -2q-25 0 -43 16t-18 42q0 28 17 44t44 16q72 0 72 -97q0 -129 -113 -191z" />
<glyph unicode="#" d="M27 168l9 60h101l41 257h-113l9 60h114l27 169h66l-27 -169h152l27 169h66l-27 -169h101l-9 -60h-101l-41 -257h113l-9 -60h-113l-27 -168h-67l27 168h-151l-27 -168h-67l27 168h-101zM204 228h151l41 257h-151z" />
<glyph unicode="$" d="M49 228h81q9 -89 48 -130q33 -35 95 -41v277q-58 22 -106 39q-107 53 -107 159q0 99 71 149q57 43 142 46v82h50v-82q88 -6 142 -51q60 -51 75 -156h-80q-10 71 -53 106q-32 26 -84 32v-262q102 -37 123 -46q106 -56 106 -160q0 -105 -74 -158q-60 -41 -155 -45v-88h-50 v88q-99 6 -154 62q-60 60 -70 179zM142 532q0 -67 106 -109l25 -9v244q-53 -3 -86 -28q-45 -32 -45 -98zM323 57q65 5 103 34q44 35 44 97q0 73 -106 114q-28 10 -41 14v-259z" />
<glyph unicode="%" horiz-adv-x="970" d="M70 518q0 87 38 137q41 59 123 59q80 0 123 -59q38 -52 38 -137q0 -84 -38 -137q-44 -58 -123 -58q-80 0 -123 58q-38 53 -38 137zM145 518q0 -63 19 -98q22 -43 67 -43q44 0 67 44q19 38 19 97q0 62 -20 99q-21 43 -66 43q-46 0 -67 -42q-19 -35 -19 -100zM252 -14 l401 742h64l-400 -742h-65zM578 195q0 87 38 137q41 59 123 59q80 0 123 -59q38 -52 38 -137q0 -84 -38 -137q-44 -58 -123 -58q-80 0 -123 58q-38 53 -38 137zM653 195q0 -63 19 -98q22 -43 67 -43q44 0 67 44q19 38 19 97q0 61 -19 99q-22 43 -67 43q-46 0 -67 -42 q-19 -35 -19 -100z" />
<glyph unicode="&#x26;" horiz-adv-x="726" d="M42 195q0 99 93 167l86 48q-46 49 -65 79q-29 43 -29 87q0 71 54 113q49 39 126 39q76 0 124 -39q52 -40 52 -108q0 -70 -67 -125q-7 -5 -37.5 -25t-47.5 -30l179 -189q38 83 46 206h81q-6 -158 -68 -268l142 -150h-104l-83 88q-90 -102 -232 -102q-108 0 -177 52 q-73 57 -73 157zM124 194q0 -60 48 -99q45 -36 117 -36q112 0 181 86l-204 217q-47 -30 -89 -62q-53 -44 -53 -106zM208 577q0 -29 32 -73q13 -18 47 -57q9 6 21 12q93 54 93 117q0 38 -24 62q-26 26 -72 26q-47 0 -71 -24q-26 -20 -26 -63z" />
<glyph unicode="'" horiz-adv-x="260" d="M60 483q78 51 84 129q-8 -2 -16 -2q-25 0 -44 16q-17 16 -17 42q0 28 17 44t44 16q72 0 72 -97q0 -129 -113 -191z" />
<glyph unicode="(" horiz-adv-x="333" d="M58 359q0 136 44 262q38 112 103 206h70q-62 -101 -95 -207q-44 -129 -44 -260t44 -260q32 -105 95 -207h-70q-65 95 -103 206q-44 126 -44 260z" />
<glyph unicode=")" horiz-adv-x="333" d="M58 -107q61 102 95 207q44 134 44 260t-44 260q-34 106 -95 207h70q63 -94 103 -206q44 -130 44 -262q0 -130 -44 -260q-40 -111 -103 -206h-70z" />
<glyph unicode="*" horiz-adv-x="506" d="M25 521l22 66l179 -68l-8 195h70l-7 -195l178 68l22 -66l-184 -55l124 -147l-54 -43l-114 158l-114 -158l-54 43l124 147z" />
<glyph unicode="+" horiz-adv-x="605" d="M50 225v68h219v218h68v-218h218v-68h-218v-219h-68v219h-219z" />
<glyph unicode="," horiz-adv-x="264" d="M60 -127q79 52 85 129q-10 -2 -17 -2q-25 0 -43 16q-17 16 -17 42q0 29 16 44q17 16 44 16q72 0 72 -97q0 -129 -113 -191z" />
<glyph unicode="-" horiz-adv-x="605" d="M50 225v68h505v-68h-505z" />
<glyph unicode="." horiz-adv-x="264" d="M71 60q0 26 18 42q17 17 43 17t43 -17q18 -16 18 -42t-18 -43q-19 -17 -43 -17t-43 17q-18 18 -18 43z" />
<glyph unicode="/" horiz-adv-x="500" d="M37 -100l355 920h71l-354 -920h-72z" />
<glyph unicode="0" d="M50 357q0 162 57 258q64 113 193 113q128 0 193 -113q57 -96 57 -258t-57 -258q-66 -113 -193 -113q-128 0 -193 113q-57 96 -57 258zM132 357q0 -125 30 -198q42 -103 138 -103t138 103q31 76 31 198q0 124 -31 198q-42 103 -138 103t-138 -103q-30 -72 -30 -198z" />
<glyph unicode="1" d="M111 516v82q47 13 100 44q49 30 86 72h64v-714h-82v614q-66 -68 -168 -98z" />
<glyph unicode="2" d="M62 0q0 99 71 177q46 52 155 127q85 61 112 89q55 60 55 128q0 65 -39 101t-109 36q-75 0 -113 -50q-43 -49 -44 -143h-82q0 119 67 191q66 72 175 72q98 0 163 -57q64 -58 64 -151q0 -92 -70 -168q-41 -43 -148 -115q-136 -91 -156 -164h375v-73h-476z" />
<glyph unicode="3" d="M51 221h83q3 -84 56 -128q46 -37 112 -37q76 0 123 44q43 43 43 105q0 64 -42 100q-41 35 -116 35h-58v64h55q71 0 109 32q38 33 38 93q0 59 -37 93q-38 35 -109 35q-73 0 -112 -38q-41 -38 -49 -111h-81q9 103 76 162q62 58 165 58q104 0 166 -52q62 -53 62 -142 q0 -121 -117 -160q64 -20 96 -61q36 -42 36 -105q0 -97 -68 -159q-69 -63 -180 -63q-100 0 -166 52q-76 63 -85 183z" />
<glyph unicode="4" d="M24 162v78l360 474h77v-485h116v-67h-116v-162h-78v162h-359zM93 229h290v378h-3z" />
<glyph unicode="5" d="M51 192h81q6 -68 54 -104q43 -32 109 -32q75 0 124 48q49 49 49 123q0 84 -46 132q-43 47 -122 47q-51 0 -91 -22q-43 -21 -64 -64h-78l38 394h415v-73h-348l-24 -239h4q30 36 77 54q40 17 91 17q102 0 165 -64q64 -67 64 -181q0 -108 -77 -177q-73 -65 -178 -65 q-95 0 -161 51q-74 57 -82 155z" />
<glyph unicode="6" d="M51 338q0 172 67 278q70 112 192 112q198 0 228 -191h-81q-24 122 -148 122q-85 0 -132 -83q-47 -76 -47 -200q0 -13 1 -26h4q28 57 77 86q47 31 111 31q102 0 165 -66q62 -67 62 -170q0 -105 -68 -175q-70 -70 -173 -70q-129 0 -196 97q-62 90 -62 255zM144 229 q0 -76 44 -123q45 -51 119 -51q71 0 117 49q45 51 45 127q0 75 -44 121q-44 47 -118 47q-71 0 -117 -48q-46 -47 -46 -122z" />
<glyph unicode="7" d="M66 639v75h469v-67l-263 -647h-87l266 639h-385z" />
<glyph unicode="8" d="M42 197q0 69 42 120q40 49 95 62v2q-56 19 -85 62q-27 39 -27 96q0 79 58 131q62 58 175 58t175 -58q58 -53 58 -131q0 -57 -27 -96q-31 -43 -85 -62v-2q56 -14 95 -62q42 -51 42 -120q0 -95 -66 -152q-70 -59 -192 -59q-124 0 -192 59q-66 57 -66 152zM123 197 q0 -65 44 -103q46 -41 133 -41q86 0 134 42q43 40 43 102q0 64 -43 104q-47 43 -134 43t-133 -43q-44 -38 -44 -104zM144 536q0 -55 33 -88q40 -40 123 -40q81 0 123 40q33 33 33 88q0 52 -37 86q-44 39 -119 39q-77 0 -119 -39q-37 -33 -37 -86z" />
<glyph unicode="9" d="M51 483q0 107 68 175q67 70 173 70q129 0 195 -96q63 -90 63 -256q0 -168 -67 -278q-73 -112 -192 -112q-199 0 -228 191h81q23 -122 148 -122q82 0 132 83q47 80 47 200q0 2 -0.5 10.5t-0.5 15.5h-4q-27 -54 -77 -86q-50 -31 -111 -31q-103 0 -166 68q-61 64 -61 168z M132 483q0 -77 44 -121q44 -47 118 -47q69 0 117 48q46 49 46 122q0 74 -44 123q-45 51 -119 51q-73 0 -118 -49q-44 -48 -44 -127z" />
<glyph unicode=":" horiz-adv-x="264" d="M71 60q0 26 18 42q17 17 43 17t43 -17q18 -16 18 -42t-18 -43q-19 -17 -43 -17t-43 17q-18 18 -18 43zM71 426q0 26 18 42q17 17 43 17t43 -17q18 -16 18 -42t-18 -43q-19 -17 -43 -17t-43 17q-18 18 -18 43z" />
<glyph unicode=";" horiz-adv-x="264" d="M64 -127q78 51 84 129q-8 -2 -16 -2q-25 0 -44 16q-17 16 -17 42q0 30 17 44q17 16 44 16q72 0 72 -97q0 -129 -113 -191zM71 426q0 26 18 42q17 17 43 17t43 -17q18 -16 18 -42t-18 -43q-19 -17 -43 -17t-43 17q-18 18 -18 43z" />
<glyph unicode="&#x3c;" horiz-adv-x="605" d="M50 227v63l505 225v-74l-411 -183l411 -182v-75z" />
<glyph unicode="=" horiz-adv-x="605" d="M50 122v68h505v-68h-505zM50 328v67h505v-67h-505z" />
<glyph unicode="&#x3e;" horiz-adv-x="605" d="M50 1v75l411 182l-411 183v74l505 -225v-63z" />
<glyph unicode="?" horiz-adv-x="537" d="M50 494q0 104 59 168q61 66 168 66q98 0 154 -53q56 -51 56 -141q0 -66 -37 -117q-14 -17 -82 -77q-31 -26 -46 -54q-19 -32 -19 -74v-23h-81v23q0 50 19 87q18 43 101 116q20 20 34 36q29 38 29 79q0 60 -33 93q-35 35 -99 35q-74 0 -111 -49q-32 -43 -32 -115h-80z M202 60q0 26 18 42q16 17 43 17q26 0 43 -17t17 -42q0 -26 -17 -43q-19 -17 -43 -17q-26 0 -43 17q-18 18 -18 43z" />
<glyph unicode="@" horiz-adv-x="858" d="M52 354q0 157 106 262q111 112 283 112q157 0 248 -94q84 -86 84 -214q0 -106 -67 -194q-66 -83 -144 -83q-63 0 -69 66q-51 -68 -126 -68q-62 0 -102 43q-39 42 -39 107q0 113 68 193q65 80 155 80q72 0 96 -75l15 56h65l-71 -261q-12 -44 -12 -61q0 -25 28 -25 q46 0 93 59q54 69 54 162q0 107 -72 177q-77 76 -208 76q-138 0 -228 -91q-88 -89 -88 -229q0 -152 89 -234q85 -79 231 -79q105 0 184 38q70 35 111 94h70q-53 -90 -151 -138q-97 -47 -214 -47q-179 0 -283 99q-106 102 -106 269zM296 288q0 -41 19 -64q19 -24 57 -24 t74 30t48 70l22 82q10 43 10 48q0 27 -17 47q-19 24 -49 24q-66 0 -113 -62q-51 -63 -51 -151z" />
<glyph unicode="A" horiz-adv-x="657" d="M0 0l281 714h95l281 -714h-89l-76 200h-328l-76 -200h-88zM190 269h276l-135 357h-4z" />
<glyph unicode="B" horiz-adv-x="677" d="M72 0v714h319q99 0 158 -48q57 -48 57 -132q0 -60 -32 -104q-33 -39 -87 -57q69 -12 109 -58t40 -116q0 -105 -74 -156q-65 -43 -173 -43h-317zM154 69h228q72 0 119 28q53 33 53 103q0 68 -46 102q-42 32 -126 32h-228v-265zM154 402h217q74 0 114 31q40 32 40 93 q0 60 -39 90q-38 29 -114 29h-218v-243z" />
<glyph unicode="C" horiz-adv-x="728" d="M42 354q0 160 82 261q89 113 256 113q119 0 200 -63t96 -170h-79q-15 77 -76 120q-58 40 -142 40q-125 0 -192 -87q-63 -81 -63 -214q0 -135 62 -212q66 -83 191 -83q85 0 145 45q64 49 85 141h79q-24 -126 -112 -194q-83 -65 -197 -65q-166 0 -255 110q-80 98 -80 258z " />
<glyph unicode="D" horiz-adv-x="706" d="M72 0v714h256q170 0 256 -98q80 -91 80 -259q0 -165 -86 -259q-90 -98 -258 -98h-248zM154 71h152q139 0 210 74q67 73 67 212q0 143 -62 213q-66 73 -206 73h-161v-572z" />
<glyph unicode="E" horiz-adv-x="637" d="M72 0v714h506v-71h-424v-239h400v-71h-400v-262h441v-71h-523z" />
<glyph unicode="F" horiz-adv-x="577" d="M72 0v714h478v-71h-396v-240h375v-71h-375v-332h-82z" />
<glyph unicode="G" horiz-adv-x="748" d="M42 354q0 160 86 262q91 112 249 112q135 0 213 -65q75 -61 94 -178h-82q-16 80 -72 124q-58 46 -153 46q-116 0 -185 -82q-68 -80 -68 -219q0 -135 66 -213q71 -83 210 -83q54 0 112 16q50 14 90 40v182h-224v71h305v-292q-49 -40 -125 -65q-78 -24 -166 -24 q-170 0 -263 108q-87 101 -87 260z" />
<glyph unicode="H" horiz-adv-x="720" d="M72 0v714h82v-310h413v310h82v-714h-82v333h-413v-333h-82z" />
<glyph unicode="I" horiz-adv-x="237" d="M78 0v714h81v-714h-81z" />
<glyph unicode="J" horiz-adv-x="517" d="M15 203v25h82v-24q0 -145 130 -145q71 0 105 43q32 41 32 129v483h82v-486q0 -116 -48 -176q-54 -66 -173 -66q-99 0 -154 55q-56 56 -56 162z" />
<glyph unicode="K" horiz-adv-x="690" d="M72 0v714h82v-371l384 371h107l-323 -306l368 -408h-110l-315 355l-111 -105v-250h-82z" />
<glyph unicode="L" horiz-adv-x="588" d="M72 0v714h81v-643h413v-71h-494z" />
<glyph unicode="M" horiz-adv-x="882" d="M72 0v714h102l266 -609h3l265 609h102v-714h-82v568h-3l-247 -568h-74l-247 568h-3v-568h-82z" />
<glyph unicode="N" horiz-adv-x="719" d="M72 0v714h86l404 -581h3v581h82v-714h-84l-406 587h-3v-587h-82z" />
<glyph unicode="O" horiz-adv-x="767" d="M42 356q0 163 88 264q93 108 254 108t253 -107q88 -103 88 -265q0 -160 -88 -263q-93 -107 -254 -107q-160 0 -253 107q-88 101 -88 263zM124 356q0 -132 66 -213q69 -84 193 -84q123 0 193 82q67 82 67 215q0 135 -67 217q-69 82 -192 82q-124 0 -194 -85 q-66 -81 -66 -214z" />
<glyph unicode="P" horiz-adv-x="642" d="M72 0v714h292q246 0 246 -210q0 -212 -247 -212h-209v-292h-82zM154 363h205q85 0 128 35q41 35 41 106q0 72 -42 104q-41 35 -127 35h-205v-280z" />
<glyph unicode="Q" horiz-adv-x="767" d="M42 356q0 163 88 264q93 108 254 108t253 -107q88 -103 88 -265q0 -160 -88 -263q-4 -4 -5 -6q34 -44 82 -113l-54 -47q-49 70 -82 114q-82 -55 -195 -55q-160 0 -253 107q-88 101 -88 263zM124 356q0 -132 66 -213q69 -84 193 -84q89 0 149 42q-62 79 -120 140l49 47 q69 -74 122 -139q60 79 60 207q0 135 -67 217q-69 82 -192 82q-124 0 -194 -85q-66 -81 -66 -214z" />
<glyph unicode="R" horiz-adv-x="676" d="M72 0v714h308q107 0 168 -49q64 -52 64 -150q0 -60 -33 -106q-35 -47 -97 -62v-2q102 -23 114 -130l11 -110q6 -65 38 -105h-89q-25 37 -29 95l-9 95q-6 64 -45 91q-35 26 -103 26h-216v-307h-82zM154 378h216q78 0 121 37q38 35 38 97q0 66 -37 98q-39 33 -122 33h-216 v-265z" />
<glyph unicode="S" horiz-adv-x="632" d="M32 236h81q11 -93 65 -137q51 -40 145 -40q88 0 142 33t54 90q0 67 -71 105q-27 16 -151 52q-126 38 -164 58q-82 48 -82 138q0 94 79 145q70 48 182 48q122 0 190 -55q71 -57 82 -170h-81q-13 77 -60 115t-135 38q-81 0 -124 -26q-51 -30 -51 -91q0 -54 61 -87 q26 -15 131 -45q141 -42 186 -69q89 -54 89 -151q0 -94 -75 -148q-76 -53 -202 -53t-198 54q-84 65 -93 196z" />
<glyph unicode="T" horiz-adv-x="619" d="M17 643v71h585v-71h-252v-643h-81v643h-252z" />
<glyph unicode="U" horiz-adv-x="714" d="M72 274v440h82v-441q0 -106 47 -159q50 -56 156 -56q105 0 156 56q47 55 47 159v441h82v-440q0 -139 -71 -213q-74 -75 -214 -75q-141 0 -213 74q-72 75 -72 214z" />
<glyph unicode="V" horiz-adv-x="639" d="M5 714h90l223 -625h3l223 625h90l-264 -714h-101z" />
<glyph unicode="W" horiz-adv-x="930" d="M5 714h92l157 -599h4l163 599h89l162 -599h4l157 599h92l-205 -714h-91l-162 595h-3l-163 -595h-91z" />
<glyph unicode="X" horiz-adv-x="637" d="M5 0l263 371l-244 343h101l193 -278l194 278h101l-246 -343l265 -371h-101l-213 306l-212 -306h-101z" />
<glyph unicode="Y" horiz-adv-x="662" d="M5 714h99l227 -348l227 348h99l-285 -424v-290h-82v290z" />
<glyph unicode="Z" horiz-adv-x="624" d="M25 0v67l445 576h-415v71h520v-68l-444 -575h468v-71h-574z" />
<glyph unicode="[" horiz-adv-x="333" d="M44 -107v934h245v-67h-171v-800h171v-67h-245z" />
<glyph unicode="\" horiz-adv-x="500" d="M37 820h71l355 -920h-72z" />
<glyph unicode="]" horiz-adv-x="333" d="M44 -40h171v800h-171v67h245v-934h-245v67z" />
<glyph unicode="^" horiz-adv-x="518" d="M60 370l161 344h76l161 -344h-67l-132 275l-132 -275h-67z" />
<glyph unicode="_" horiz-adv-x="500" d="M0 -73h500v-67h-500v67z" />
<glyph unicode="`" horiz-adv-x="333" d="M71 722h91l101 -146h-55z" />
<glyph unicode="a" horiz-adv-x="559" d="M42 135q0 99 79 144q64 38 172 38l124 1v17q0 130 -135 130q-63 0 -98 -26q-39 -27 -48 -80h-79q12 89 76 132q56 40 154 40q110 0 164 -58q46 -52 46 -141v-332h-75v87q-31 -43 -80 -70q-59 -31 -128 -31q-78 0 -124 40q-48 40 -48 109zM124 136q0 -38 28 -62 q29 -23 79 -23q77 0 133 48q53 48 53 111v45l-119 -1q-174 0 -174 -118z" />
<glyph unicode="b" horiz-adv-x="586" d="M62 0v728h80v-306q60 109 171 109t173 -83q58 -76 58 -188q0 -116 -58 -192q-65 -82 -177 -82q-119 0 -172 99v-85h-75zM139 253q0 -87 39 -141q42 -60 121 -60q83 0 126 61q37 55 37 147q0 93 -39 145q-44 60 -127 60q-72 0 -113 -56q-44 -54 -44 -146v-10z" />
<glyph unicode="c" horiz-adv-x="547" d="M42 256q0 119 61 193q66 82 182 82q96 0 154 -45q59 -46 73 -141h-79q-11 60 -48 90q-38 29 -100 29q-75 0 -119 -57q-42 -55 -42 -150q0 -96 41 -149q41 -55 119 -55q133 0 151 134h80q-18 -101 -77 -151t-154 -50q-116 0 -181 78q-61 73 -61 192z" />
<glyph unicode="d" horiz-adv-x="586" d="M42 260q0 114 58 188q62 83 173 83t171 -109v306h80v-728h-75v85q-54 -99 -172 -99q-113 0 -177 82q-58 74 -58 192zM124 260q0 -94 37 -147q43 -61 126 -61q77 0 121 60q38 55 38 141v10q0 89 -43 146q-43 56 -113 56q-86 0 -128 -60q-38 -51 -38 -145z" />
<glyph unicode="e" horiz-adv-x="555" d="M32 259q0 116 65 191q66 81 178 81q125 0 188 -84q57 -75 60 -211h-408q6 -88 47 -135q42 -48 116 -48q63 0 103 32q32 26 52 81h80q-18 -74 -70 -122q-66 -58 -165 -58q-111 0 -178 73q-68 74 -68 200zM117 298h323q-15 166 -163 166q-69 0 -111 -45q-41 -44 -49 -121z " />
<glyph unicode="f" horiz-adv-x="373" d="M5 450v67h130v59q0 65 33 101q34 37 101 37h99v-69h-89q-35 0 -49 -17q-15 -16 -15 -54v-57h146v-67h-146v-450h-80v450h-130z" />
<glyph unicode="g" horiz-adv-x="591" d="M42 270q0 114 62 185q63 76 171 76q117 0 174 -103v89h80v-481q0 -248 -236 -248q-106 0 -160 42q-55 42 -69 126h80q9 -53 44 -77q35 -26 105 -26q156 0 156 172v91q-57 -104 -174 -104q-108 0 -171 74q-62 71 -62 184zM124 270q0 -83 37 -133q43 -58 125 -58 q77 0 122 54q42 52 42 137q0 88 -42 139q-44 56 -121 56q-78 0 -121 -56q-42 -51 -42 -139z" />
<glyph unicode="h" horiz-adv-x="556" d="M62 0v728h80v-296q27 50 72 75q42 24 94 24q92 0 139 -53q48 -52 48 -152v-326h-80v314q0 71 -34 111q-36 39 -100 39q-60 0 -99 -48q-40 -47 -40 -121v-295h-80z" />
<glyph unicode="i" horiz-adv-x="256" d="M68 653q0 28 17 42q17 17 43 17t43 -17q18 -15 18 -42q0 -25 -18 -43q-19 -17 -43 -17t-43 17q-17 17 -17 43zM88 0v517h80v-517h-80z" />
<glyph unicode="j" horiz-adv-x="267" d="M-15 -131h42q71 0 71 74v574h80v-577q0 -138 -145 -138h-48v67zM78 653q0 28 17 42q17 17 43 17q27 0 44 -17q17 -15 17 -42q0 -24 -17 -43q-19 -17 -44 -17q-24 0 -43 17q-17 17 -17 43z" />
<glyph unicode="k" horiz-adv-x="529" d="M62 0v728h80v-451l259 240h106l-228 -208l250 -309h-103l-202 257l-82 -74v-183h-80z" />
<glyph unicode="l" horiz-adv-x="235" d="M78 0v728h79v-728h-79z" />
<glyph unicode="m" horiz-adv-x="855" d="M62 0v517h80v-69q58 83 146 83q119 0 162 -98q30 52 72 74q38 24 91 24q80 0 131 -51q49 -54 49 -141v-339h-80v326q0 68 -29 102q-29 35 -96 35q-53 0 -85 -38q-35 -38 -35 -101v-324h-80v326q0 137 -119 137q-56 0 -91 -44q-36 -42 -36 -104v-315h-80z" />
<glyph unicode="n" horiz-adv-x="559" d="M62 0v517h80v-76q27 43 69 66q42 24 93 24q193 0 193 -213v-318h-80v312q0 151 -136 151q-54 0 -93 -39q-42 -42 -46 -112v-312h-80z" />
<glyph unicode="o" horiz-adv-x="586" d="M42 258q0 116 66 193q68 80 185 80t185 -80q66 -77 66 -193q0 -115 -65 -191q-71 -81 -186 -81q-116 0 -185 81q-66 75 -66 191zM124 258q0 -86 41 -142q45 -63 128 -63q81 0 129 63q41 58 41 142q0 85 -41 143q-48 63 -129 63q-83 0 -128 -63q-41 -56 -41 -143z" />
<glyph unicode="p" horiz-adv-x="586" d="M62 -198v715h75v-85q55 99 172 99q112 0 176 -83q59 -76 59 -191q0 -113 -58 -189q-64 -82 -173 -82q-111 0 -171 108v-292h-80zM139 252q0 -91 44 -145q43 -55 113 -55q83 0 127 58q39 54 39 147q0 90 -37 146q-43 62 -126 62q-79 0 -121 -61q-39 -54 -39 -142v-10z" />
<glyph unicode="q" horiz-adv-x="586" d="M42 257q0 117 58 191q62 83 177 83t172 -99v85h75v-715h-80v292q-60 -108 -171 -108q-110 0 -174 82q-57 75 -57 189zM124 257q0 -93 39 -147q43 -58 127 -58q69 0 113 55q43 57 43 145v10q0 87 -38 142q-43 61 -121 61q-85 0 -126 -62q-37 -53 -37 -146z" />
<glyph unicode="r" horiz-adv-x="365" d="M62 0v517h79v-90q21 46 54 71q41 33 94 33q43 0 71 -12v-80q-36 11 -77 11q-61 0 -101 -53q-41 -50 -41 -123v-274h-79z" />
<glyph unicode="s" horiz-adv-x="505" d="M32 165h78q9 -60 43 -88q33 -24 99 -24q139 0 139 88q0 43 -49 67q-25 12 -110 33q-93 23 -128 46q-59 35 -59 101q0 65 58 104q54 39 142 39q191 0 212 -161h-78q-11 50 -40 70q-33 24 -95 24q-55 0 -84 -20q-33 -20 -33 -54t44 -56q25 -12 107 -34q92 -22 133 -48 q62 -39 62 -106q0 -160 -219 -160q-204 0 -222 179z" />
<glyph unicode="t" horiz-adv-x="355" d="M17 450v67h104v134l79 33v-167h128v-67h-128v-329q0 -30 11 -41q11 -13 38 -13h66v-67h-78q-64 0 -91 33q-25 29 -25 88v329h-104z" />
<glyph unicode="u" horiz-adv-x="560" d="M62 197v320h80v-316q0 -75 31 -110q32 -37 102 -37q50 0 92 40q42 42 51 108v315h80v-517h-80v80q-64 -94 -168 -94q-188 0 -188 211z" />
<glyph unicode="v" horiz-adv-x="482" d="M5 517h88l148 -417l148 417h88l-196 -517h-81z" />
<glyph unicode="w" horiz-adv-x="755" d="M5 517h88l127 -419l120 419h75l120 -419l127 419h88l-176 -517h-76l-120 416l-122 -416h-75z" />
<glyph unicode="x" horiz-adv-x="509" d="M5 0l205 274l-183 243h94l134 -184l133 184h94l-183 -243l205 -274h-95l-154 215l-155 -215h-95z" />
<glyph unicode="y" horiz-adv-x="496" d="M5 517h87l158 -408l153 408h88l-283 -715h-87l89 210z" />
<glyph unicode="z" horiz-adv-x="487" d="M25 0v58l316 392h-306v67h411v-56l-317 -394h333v-67h-437z" />
<glyph unicode="{" horiz-adv-x="333" d="M21 327v66q56 3 76 26q19 22 19 66v203q0 65 32 100q33 39 95 39h69v-63h-56q-66 0 -66 -74v-208q0 -90 -82 -122q82 -33 82 -122v-209q0 -73 66 -73h56v-63h-69q-62 0 -95 39q-32 35 -32 99v204q0 44 -19 66q-21 24 -76 26z" />
<glyph unicode="|" horiz-adv-x="195" d="M64 -140v1000h67v-1000h-67z" />
<glyph unicode="}" horiz-adv-x="333" d="M21 -44h56q66 0 66 73v209q0 89 82 122q-82 31 -82 122v208q0 74 -66 74h-56v63h69q60 0 95 -39q32 -37 32 -100v-203q0 -45 19 -67q21 -22 76 -25v-66q-55 -1 -76 -26q-19 -20 -19 -66v-204q0 -62 -32 -99q-35 -39 -95 -39h-69v63z" />
<glyph unicode="~" horiz-adv-x="500" d="M18 337q62 98 129 98q48 0 113 -44q66 -43 93 -43q33 0 79 70l50 -36q-65 -98 -129 -98q-46 0 -111 44q-65 43 -95 43q-35 0 -79 -69z" />
<glyph horiz-adv-x="0" />
<glyph unicode="&#xa1;" horiz-adv-x="333" d="M106 457q0 26 18 44q16 16 42 16q27 0 44 -16q17 -17 17 -44q0 -23 -17 -42q-19 -17 -44 -17t-42 17q-18 18 -18 42zM120 -198l16 526h62l15 -526h-93z" />
<glyph unicode="&#xa2;" d="M64 355q0 119 62 193q66 82 181 82q36 0 66 -6l37 102l47 -17l-36 -100q23 -10 40 -24q59 -44 74 -141h-80q-11 60 -48 90q-6 4 -11 7l-140 -382q26 -7 50 -7q132 0 152 134h79q-18 -99 -76 -151q-59 -50 -155 -50q-41 0 -74 9l-43 -116l-47 17l43 118q-34 19 -60 50 q-61 73 -61 192zM146 356q0 -96 40 -149q9 -12 24 -25l139 377q-17 4 -42 4q-75 0 -118 -57q-43 -55 -43 -150z" />
<glyph unicode="&#xa3;" d="M39 328v50h93q-23 92 -23 145q0 89 59 145q60 60 164 60q120 0 179 -84q41 -58 44 -140h-82q-6 76 -37 113q-36 40 -105 40q-68 0 -105 -40q-35 -36 -35 -96q0 -50 20 -139q0 -2 1 -4h205v-50h-195q9 -52 9 -84q0 -102 -74 -173h379v-71h-478v71q97 61 97 166 q0 34 -12 91h-104z" />
<glyph unicode="&#xa4;" d="M44 576l40 40l74 -73q61 49 143 49q79 0 141 -49l74 73l40 -40l-73 -72q49 -64 49 -144q0 -78 -50 -143l74 -72l-40 -40l-73 73q-64 -49 -142 -49q-79 0 -143 49l-73 -73l-40 40l73 73q-49 62 -49 142q0 82 49 143zM147 360q0 -63 45 -108t109 -45q63 0 108 45t45 108 q0 64 -45 109t-108 45q-64 0 -109 -45t-45 -109z" />
<glyph unicode="&#xa5;" d="M24 714h99l177 -328l177 328h99l-204 -359h149v-50h-177v-98h177v-50h-177v-157h-88v157h-176v50h176v98h-176v50h148z" />
<glyph unicode="&#xa6;" horiz-adv-x="195" d="M64 0v308h67v-308h-67zM64 406v308h67v-308h-67z" />
<glyph unicode="&#xa7;" d="M86 361q0 49 54 103q27 29 70 56q-38 24 -60 48q-39 44 -39 100q0 79 61 124q57 42 147 42q73 0 155 -30v-73q-76 32 -155 32q-62 0 -95 -24q-35 -23 -35 -67q0 -39 35 -70q26 -23 92 -55q99 -49 129 -72q62 -45 62 -100q0 -45 -40 -91q-27 -31 -73 -62q41 -20 67 -45 q54 -48 54 -109q0 -83 -70 -135q-65 -45 -160 -45q-94 0 -180 37v74q92 -40 178 -40q70 0 112 27t42 71q0 47 -51 81q-27 20 -118 59q-89 37 -125 65q-57 44 -57 99zM164 369q0 -32 59 -66q13 -8 95 -45q111 72 111 115q0 27 -54 60q-19 12 -97 52q-36 -20 -67 -48 q-47 -40 -47 -68z" />
<glyph unicode="&#xa8;" horiz-adv-x="500" d="M116 825q0 21 12 33q13 13 32 13q18 0 33 -13q12 -12 12 -33q0 -19 -12 -32q-13 -12 -33 -12t-32 12q-12 13 -12 32zM295 825q0 21 12 33q13 13 32 13q18 0 33 -13q12 -12 12 -33q0 -19 -12 -32q-14 -12 -33 -12q-20 0 -32 12q-12 13 -12 32z" />
<glyph unicode="&#xa9;" horiz-adv-x="802" d="M30 357q0 155 108 263t263 108q153 0 263 -108q108 -108 108 -263q0 -153 -108 -263q-110 -108 -263 -108q-155 0 -263 108q-108 110 -108 263zM77 357q0 -134 95 -229t229 -95q132 0 229 95q95 97 95 229q0 134 -95 229t-229 95q-135 0 -229 -95q-95 -94 -95 -229z M192 355q0 99 53 161q58 71 165 71q78 0 127 -37q53 -39 65 -114h-68q-10 44 -44 67q-32 23 -81 23q-73 0 -111 -48q-36 -45 -36 -123q0 -77 38 -121q37 -46 108 -46q49 0 85 27q33 27 47 79h68q-17 -85 -72 -128q-51 -39 -128 -39q-107 0 -164 69q-52 62 -52 159z" />
<glyph unicode="&#xaa;" horiz-adv-x="355" d="M27 476q0 66 53 95q42 24 112 24h76v9q0 73 -82 73q-80 0 -90 -64h-60q16 115 153 115q74 0 109 -38q31 -34 31 -91v-211h-58v51q-51 -60 -129 -60q-51 0 -83 26t-32 71zM89 478q0 -24 17 -37q16 -13 47 -13q46 0 81 29q34 29 34 60v30h-73q-106 0 -106 -69z" />
<glyph unicode="&#xab;" horiz-adv-x="565" d="M30 331v61l285 197v-71l-227 -157l227 -156v-72zM250 331v61l285 197v-71l-227 -157l227 -156v-72z" />
<glyph unicode="&#xac;" horiz-adv-x="605" d="M50 225v68h505v-225h-67v157h-438z" />
<glyph unicode="&#xad;" horiz-adv-x="333" d="M42 225v68h250v-68h-250z" />
<glyph unicode="&#xae;" horiz-adv-x="802" d="M30 357q0 155 108 263t263 108q153 0 263 -108q108 -108 108 -263q0 -153 -108 -263q-110 -108 -263 -108q-155 0 -263 108q-108 110 -108 263zM77 357q0 -134 95 -229t229 -95q132 0 229 95q95 97 95 229q0 134 -95 229t-229 95q-135 0 -229 -95q-95 -94 -95 -229z M229 136v442h188q69 0 109 -31q42 -33 42 -95q0 -77 -71 -104q35 -9 51 -43q11 -24 14 -67q5 -71 31 -102h-79q-17 29 -21 91q-5 52 -22 69q-19 22 -69 22h-103v-182h-70zM299 379h110q42 0 67 19q22 20 22 51q0 69 -90 69h-109v-139z" />
<glyph unicode="&#xaf;" horiz-adv-x="683" d="M0 793v67h683v-67h-683z" />
<glyph unicode="&#xb0;" horiz-adv-x="331" d="M42 706q0 51 36 87q36 37 87 37t87 -37q37 -37 37 -87t-37 -87q-36 -36 -87 -36t-87 36t-36 87zM88 706q0 -32 23 -54q23 -23 54 -23q30 0 55 23q22 24 22 54q0 31 -22 55q-23 22 -55 22t-54 -22q-23 -22 -23 -55z" />
<glyph unicode="&#xb1;" horiz-adv-x="605" d="M50 0v67h505v-67h-505zM50 295v67h219v155h68v-155h218v-67h-218v-155h-68v155h-219z" />
<glyph unicode="&#xb2;" horiz-adv-x="500" d="M99 385q0 63 45 113q26 30 95 77q54 38 67 51q33 34 33 74q0 38 -23 56q-21 20 -62 20q-43 0 -65 -28q-26 -31 -26 -86h-61q0 77 44 123q38 44 109 44q65 0 104 -35q40 -35 40 -94q0 -58 -43 -104q-21 -21 -92 -69q-75 -50 -90 -88h226v-54h-301z" />
<glyph unicode="&#xb3;" horiz-adv-x="500" d="M92 526h62q1 -54 35 -78q25 -19 62 -19q43 0 71 25q25 25 25 58q0 36 -24 56q-25 19 -67 19h-41v49h39q84 0 84 70q0 34 -21 52q-23 18 -62 18q-85 0 -94 -88h-60q6 68 48 104q40 37 105 37q64 0 105 -33q40 -32 40 -87q0 -68 -62 -95q71 -30 71 -100q0 -60 -44 -99 q-44 -38 -113 -38q-60 0 -99 27q-54 37 -60 122z" />
<glyph unicode="&#xb4;" horiz-adv-x="333" d="M71 755l101 146h91l-137 -146h-55z" />
<glyph unicode="&#xb5;" horiz-adv-x="560" d="M62 -198v715h80v-320q0 -143 133 -143q55 0 94 39q41 41 49 109v315h80v-517h-80v80q-33 -48 -70 -71q-40 -23 -88 -23q-78 0 -118 54v-238h-80z" />
<glyph unicode="&#xb6;" horiz-adv-x="559" d="M24 638q0 85 53 129q50 44 142 44h270v-904h-62v851h-151v-851h-61v559q-89 3 -137 42q-54 44 -54 130z" />
<glyph unicode="&#xb7;" horiz-adv-x="500" d="M177 360q0 31 22 52q21 21 51 21t51 -21q22 -22 22 -52q0 -29 -22 -51q-21 -21 -51 -21t-51 21q-22 21 -22 51z" />
<glyph unicode="&#xb8;" horiz-adv-x="290" d="M39 -188l14 31q41 -19 74 -19q31 0 51 13q18 12 18 36q0 43 -66 43q-16 0 -45 -4l34 91h42l-20 -56q10 1 22 1q37 0 63 -18q25 -19 25 -56q0 -46 -39 -69q-31 -17 -78 -17q-50 0 -95 24z" />
<glyph unicode="&#xb9;" horiz-adv-x="500" d="M125 691v60q70 18 118 70h46v-436h-61v359q-39 -35 -103 -53z" />
<glyph unicode="&#xba;" horiz-adv-x="385" d="M27 553q0 75 44 123q45 52 122 52t123 -53q43 -49 43 -122q0 -71 -44 -123q-45 -51 -122 -51t-122 51q-44 50 -44 123zM89 553q0 -55 28 -89t76 -34q47 0 76 34q28 36 28 89q0 55 -28 89q-28 35 -76 35q-50 0 -76 -35q-28 -32 -28 -89z" />
<glyph unicode="&#xbb;" horiz-adv-x="565" d="M30 133v72l227 156l-227 157v71l285 -197v-61zM250 133v72l227 156l-227 157v71l285 -197v-61z" />
<glyph unicode="&#xbc;" horiz-adv-x="1000" d="M93 691v60q69 18 117 70h46v-436h-60v359q-40 -35 -103 -53zM121 -100l688 920h70l-687 -920h-71zM576 -3v53l216 286h65v-289h69v-50h-69v-97h-58v97h-223zM635 47h164v217h-4z" />
<glyph unicode="&#xbd;" horiz-adv-x="1000" d="M93 691v60q69 18 117 70h46v-436h-60v359q-40 -35 -103 -53zM121 -100l688 920h70l-687 -920h-71zM622 -100q0 65 44 113q28 31 96 77q54 38 67 51q33 34 33 74q0 38 -23 56q-23 20 -63 20q-42 0 -64 -28q-26 -31 -26 -86h-61q0 76 43 122q40 45 110 45q65 0 104 -35 q40 -35 40 -94q0 -58 -44 -104q-24 -24 -91 -69q-77 -50 -90 -88h226v-54h-301z" />
<glyph unicode="&#xbe;" horiz-adv-x="1000" d="M64 526h62q1 -54 35 -78q25 -19 62 -19q43 0 71 25q25 25 25 58q0 36 -24 56q-25 19 -67 19h-41v49h39q84 0 84 70q0 34 -21 52q-22 18 -62 18q-85 0 -94 -88h-60q6 68 48 104q40 37 105 37q64 0 105 -33q40 -32 40 -87q0 -68 -62 -95q71 -30 71 -100q0 -60 -44 -99 q-44 -38 -113 -38q-60 0 -99 27q-54 37 -60 122zM121 -100l688 920h70l-687 -920h-71zM576 -3v53l216 286h65v-289h69v-50h-69v-97h-58v97h-223zM635 47h164v217h-4z" />
<glyph unicode="&#xbf;" horiz-adv-x="537" d="M50 -17q0 70 37 117q17 22 82 77q32 31 46 54q19 36 19 73v24h81v-23q0 -51 -23 -94q-21 -39 -66 -81q-50 -44 -65 -64q-29 -35 -29 -79q0 -59 34 -93q33 -35 98 -35q71 0 111 49q30 43 32 115h80q-1 -104 -59 -168q-62 -66 -168 -66q-96 0 -154 53q-56 52 -56 141z M214 457q0 28 17 44t44 16q25 0 42 -16q18 -18 18 -44q0 -24 -18 -42q-19 -17 -42 -17q-27 0 -44 17t-17 42z" />
<glyph unicode="&#xc0;" horiz-adv-x="657" d="M0 0l281 714h95l281 -714h-89l-76 200h-328l-76 -200h-88zM190 269h276l-135 357h-4zM202 901h91l101 -146h-55z" />
<glyph unicode="&#xc1;" horiz-adv-x="657" d="M0 0l281 714h95l281 -714h-89l-76 200h-328l-76 -200h-88zM190 269h276l-135 357h-4zM263 755l101 146h91l-137 -146h-55z" />
<glyph unicode="&#xc2;" horiz-adv-x="657" d="M0 0l281 714h95l281 -714h-89l-76 200h-328l-76 -200h-88zM187 766l107 127h68l108 -127h-54l-87 89l-88 -89h-54zM190 269h276l-135 357h-4z" />
<glyph unicode="&#xc3;" horiz-adv-x="657" d="M0 0l281 714h95l281 -714h-89l-76 200h-328l-76 -200h-88zM176 819q39 60 84 60q27 0 70 -23q44 -22 64 -22q21 0 49 37l37 -28q-36 -59 -84 -59q-27 0 -71 22q-40 23 -62 23q-25 0 -51 -38zM190 269h276l-135 357h-4z" />
<glyph unicode="&#xc4;" horiz-adv-x="657" d="M0 0l281 714h95l281 -714h-89l-76 200h-328l-76 -200h-88zM190 269h276l-135 357h-4zM194 825q0 21 13 33q13 13 32 13q18 0 33 -13q12 -12 12 -33q0 -19 -12 -32q-14 -12 -33 -12q-20 0 -32 12q-13 13 -13 32zM373 825q0 21 12 33q13 13 32 13q18 0 33 -13 q12 -12 12 -33q0 -19 -12 -32q-14 -12 -33 -12q-20 0 -32 12q-12 13 -12 32z" />
<glyph unicode="&#xc5;" horiz-adv-x="657" d="M0 0l281 714h95l281 -714h-89l-76 200h-328l-76 -200h-88zM190 269h276l-135 357h-4zM243 825q0 35 26 60q25 25 60 25q33 0 60 -25q25 -27 25 -60q0 -34 -25 -61q-27 -25 -60 -25q-35 0 -60 25q-26 25 -26 61zM278 825q0 -23 14 -37q16 -14 37 -14q20 0 36 14 q15 15 15 37q0 21 -15 36t-36 15q-22 0 -37 -15q-14 -14 -14 -36z" />
<glyph unicode="&#xc6;" horiz-adv-x="950" d="M0 0l382 714h521v-71h-378v-239h355v-71h-355v-262h395v-71h-476v200h-247l-108 -200h-89zM234 269h210v358h-17z" />
<glyph unicode="&#xc7;" horiz-adv-x="728" d="M42 354q0 160 82 261q89 113 256 113q119 0 200 -63t96 -170h-79q-15 77 -76 120q-58 40 -142 40q-125 0 -192 -87q-63 -81 -63 -214q0 -135 62 -212q66 -83 191 -83q85 0 145 45q64 49 85 141h79q-24 -126 -112 -194q-74 -59 -178 -65l-15 -39q10 1 23 1q37 0 61 -18 q27 -18 27 -56q0 -46 -39 -69q-31 -17 -78 -17q-51 0 -96 24l15 31q41 -19 74 -19q30 0 50 13q18 12 18 36q0 43 -65 43q-17 0 -45 -4l27 75q-150 8 -231 109q-80 98 -80 258z" />
<glyph unicode="&#xc8;" horiz-adv-x="637" d="M72 0v714h506v-71h-424v-239h400v-71h-400v-262h441v-71h-523zM201 901h92l100 -146h-55z" />
<glyph unicode="&#xc9;" horiz-adv-x="637" d="M72 0v714h506v-71h-424v-239h400v-71h-400v-262h441v-71h-523zM252 755l101 146h91l-137 -146h-55z" />
<glyph unicode="&#xca;" horiz-adv-x="637" d="M72 0v714h506v-71h-424v-239h400v-71h-400v-262h441v-71h-523zM177 766l108 127h68l107 -127h-54l-88 89l-87 -89h-54z" />
<glyph unicode="&#xcb;" horiz-adv-x="637" d="M72 0v714h506v-71h-424v-239h400v-71h-400v-262h441v-71h-523zM184 825q0 21 13 33q13 13 32 13q17 0 32 -13q13 -13 13 -33q0 -17 -13 -32q-12 -12 -32 -12t-32 12q-13 13 -13 32zM363 825q0 21 12 33q13 13 33 13q19 0 32 -13t13 -33q0 -17 -13 -32q-12 -12 -32 -12 q-21 0 -33 12q-12 13 -12 32z" />
<glyph unicode="&#xcc;" horiz-adv-x="237" d="M-16 901h92l100 -146h-55zM78 0v714h81v-714h-81z" />
<glyph unicode="&#xcd;" horiz-adv-x="237" d="M61 755l100 146h91l-136 -146h-55zM78 0v714h81v-714h-81z" />
<glyph unicode="&#xce;" horiz-adv-x="237" d="M-23 766l107 127h68l108 -127h-54l-88 89l-87 -89h-54zM78 0v714h81v-714h-81z" />
<glyph unicode="&#xcf;" horiz-adv-x="237" d="M-16 825q0 20 13 33t32 13q18 0 33 -13q12 -12 12 -33q0 -19 -12 -32q-14 -12 -33 -12q-20 0 -32 12q-13 15 -13 32zM78 0v714h81v-714h-81zM163 825q0 21 12 33q13 13 32 13q18 0 33 -13q12 -12 12 -33q0 -19 -12 -32q-14 -12 -33 -12q-20 0 -32 12q-12 13 -12 32z" />
<glyph unicode="&#xd0;" horiz-adv-x="714" d="M0 334v51h80v329h256q170 0 256 -98q80 -91 80 -259q0 -165 -86 -259q-90 -98 -258 -98h-248v334h-80zM162 71h152q139 0 210 74q67 73 67 212q0 143 -62 213q-66 73 -206 73h-161v-258h190v-51h-190v-263z" />
<glyph unicode="&#xd1;" horiz-adv-x="719" d="M72 0v714h86l404 -581h3v581h82v-714h-84l-406 587h-3v-587h-82zM208 819q38 60 84 60q26 0 70 -23q44 -22 63 -22q23 0 49 37l38 -28q-38 -59 -84 -59q-26 0 -72 22q-40 23 -62 23q-24 0 -50 -38z" />
<glyph unicode="&#xd2;" horiz-adv-x="767" d="M42 356q0 163 88 264q93 108 254 108t253 -107q88 -103 88 -265q0 -160 -88 -263q-93 -107 -254 -107q-160 0 -253 107q-88 101 -88 263zM124 356q0 -132 66 -213q69 -84 193 -84q123 0 193 82q67 82 67 215q0 135 -67 217q-69 82 -192 82q-124 0 -194 -85 q-66 -81 -66 -214zM256 901h91l101 -146h-55z" />
<glyph unicode="&#xd3;" horiz-adv-x="767" d="M42 356q0 163 88 264q93 108 254 108t253 -107q88 -103 88 -265q0 -160 -88 -263q-93 -107 -254 -107q-160 0 -253 107q-88 101 -88 263zM124 356q0 -132 66 -213q69 -84 193 -84q123 0 193 82q67 82 67 215q0 135 -67 217q-69 82 -192 82q-124 0 -194 -85 q-66 -81 -66 -214zM320 755l100 146h92l-137 -146h-55z" />
<glyph unicode="&#xd4;" horiz-adv-x="767" d="M42 356q0 163 88 264q93 108 254 108t253 -107q88 -103 88 -265q0 -160 -88 -263q-93 -107 -254 -107q-160 0 -253 107q-88 101 -88 263zM124 356q0 -132 66 -213q69 -84 193 -84q123 0 193 82q67 82 67 215q0 135 -67 217q-69 82 -192 82q-124 0 -194 -85 q-66 -81 -66 -214zM242 766l108 127h67l108 -127h-54l-87 89l-88 -89h-54z" />
<glyph unicode="&#xd5;" horiz-adv-x="767" d="M42 356q0 163 88 264q93 108 254 108t253 -107q88 -103 88 -265q0 -160 -88 -263q-93 -107 -254 -107q-160 0 -253 107q-88 101 -88 263zM124 356q0 -132 66 -213q69 -84 193 -84q123 0 193 82q67 82 67 215q0 135 -67 217q-69 82 -192 82q-124 0 -194 -85 q-66 -81 -66 -214zM232 819q38 60 83 60q27 0 70 -23q44 -22 64 -22q21 0 49 37l37 -28q-36 -59 -84 -59q-27 0 -71 22q-40 23 -62 23q-25 0 -51 -38z" />
<glyph unicode="&#xd6;" horiz-adv-x="767" d="M42 356q0 163 88 264q93 108 254 108t253 -107q88 -103 88 -265q0 -160 -88 -263q-93 -107 -254 -107q-160 0 -253 107q-88 101 -88 263zM124 356q0 -132 66 -213q69 -84 193 -84q123 0 193 82q67 82 67 215q0 135 -67 217q-69 82 -192 82q-124 0 -194 -85 q-66 -81 -66 -214zM249 825q0 21 13 33q13 13 32 13q18 0 33 -13q12 -12 12 -33q0 -19 -12 -32q-13 -12 -33 -12t-32 12q-13 13 -13 32zM428 825q0 21 12 33q13 13 32 13q18 0 33 -13q13 -13 13 -33q0 -17 -13 -32q-13 -12 -33 -12t-32 12q-12 13 -12 32z" />
<glyph unicode="&#xd7;" horiz-adv-x="605" d="M57 61l199 198l-199 197l48 48l198 -198l197 198l48 -48l-198 -197l198 -198l-48 -48l-197 198l-198 -198z" />
<glyph unicode="&#xd8;" horiz-adv-x="767" d="M42 356q0 163 88 264q93 108 254 108q97 0 169 -39l52 89l44 -25l-53 -92q25 -21 41 -40q88 -103 88 -265q0 -160 -88 -263q-93 -107 -254 -107q-88 0 -158 34l-51 -88l-44 25l51 89q-31 23 -51 47q-88 101 -88 263zM124 356q0 -132 66 -213q14 -17 30 -30l295 511 q-55 31 -131 31q-124 0 -194 -85q-66 -81 -66 -214zM263 85q52 -26 120 -26q123 0 193 82q67 82 67 215q0 135 -67 217q-3 4 -19 20z" />
<glyph unicode="&#xd9;" horiz-adv-x="714" d="M72 274v440h82v-441q0 -106 47 -159q50 -56 156 -56q105 0 156 56q47 55 47 159v441h82v-440q0 -139 -71 -213q-74 -75 -214 -75q-141 0 -213 74q-72 75 -72 214zM224 901h91l101 -146h-55z" />
<glyph unicode="&#xda;" horiz-adv-x="714" d="M72 274v440h82v-441q0 -106 47 -159q50 -56 156 -56q105 0 156 56q47 55 47 159v441h82v-440q0 -139 -71 -213q-74 -75 -214 -75q-141 0 -213 74q-72 75 -72 214zM298 755l101 146h91l-137 -146h-55z" />
<glyph unicode="&#xdb;" horiz-adv-x="714" d="M72 274v440h82v-441q0 -106 47 -159q50 -56 156 -56q105 0 156 56q47 55 47 159v441h82v-440q0 -139 -71 -213q-74 -75 -214 -75q-141 0 -213 74q-72 75 -72 214zM216 766l107 127h68l108 -127h-54l-88 89l-87 -89h-54z" />
<glyph unicode="&#xdc;" horiz-adv-x="714" d="M72 274v440h82v-441q0 -106 47 -159q50 -56 156 -56q105 0 156 56q47 55 47 159v441h82v-440q0 -139 -71 -213q-74 -75 -214 -75q-141 0 -213 74q-72 75 -72 214zM223 825q0 21 12 33q13 13 32 13q18 0 33 -13q13 -13 13 -33q0 -17 -13 -32q-14 -12 -33 -12q-20 0 -32 12 q-12 13 -12 32zM402 825q0 21 12 33q13 13 32 13q18 0 33 -13q12 -12 12 -33q0 -19 -12 -32q-13 -12 -33 -12t-32 12q-12 13 -12 32z" />
<glyph unicode="&#xdd;" horiz-adv-x="662" d="M5 714h99l227 -348l227 348h99l-285 -424v-290h-82v290zM265 755l101 146h91l-137 -146h-55z" />
<glyph unicode="&#xde;" horiz-adv-x="642" d="M72 0v714h82v-137h210q246 0 246 -210q0 -212 -247 -212h-209v-155h-82zM154 227h205q85 0 128 34q41 35 41 106q0 72 -42 105q-41 34 -127 34h-205v-279z" />
<glyph unicode="&#xdf;" horiz-adv-x="632" d="M72 0v455q0 125 72 200q69 73 179 73q112 0 177 -52q67 -52 67 -144q0 -51 -27 -93q-30 -44 -81 -64q131 -39 131 -172q0 -100 -61 -159q-63 -58 -161 -58q-51 0 -121 7v74q42 -9 102 -9q72 0 114 36q45 39 45 107t-41 103q-39 35 -116 35h-67v64h67q59 0 96 33 q38 35 38 90q0 61 -40 96q-40 34 -116 34q-85 0 -131 -53q-45 -53 -45 -150v-453h-81z" />
<glyph unicode="&#xe0;" horiz-adv-x="559" d="M42 135q0 99 79 144q64 38 172 38l124 1v17q0 130 -135 130q-63 0 -98 -26q-39 -27 -48 -80h-79q12 89 76 132q56 40 154 40q110 0 164 -58q46 -52 46 -141v-332h-75v87q-31 -43 -80 -70q-59 -31 -128 -31q-78 0 -124 40q-48 40 -48 109zM124 136q0 -38 28 -62 q29 -23 79 -23q77 0 133 48q53 48 53 111v45l-119 -1q-174 0 -174 -118zM148 722h91l101 -146h-55z" />
<glyph unicode="&#xe1;" horiz-adv-x="559" d="M42 135q0 99 79 144q64 38 172 38l124 1v17q0 130 -135 130q-63 0 -98 -26q-39 -27 -48 -80h-79q12 89 76 132q56 40 154 40q110 0 164 -58q46 -52 46 -141v-332h-75v87q-31 -43 -80 -70q-59 -31 -128 -31q-78 0 -124 40q-48 40 -48 109zM124 136q0 -38 28 -62 q29 -23 79 -23q77 0 133 48q53 48 53 111v45l-119 -1q-174 0 -174 -118zM211 576l100 146h91l-136 -146h-55z" />
<glyph unicode="&#xe2;" horiz-adv-x="559" d="M42 135q0 99 79 144q64 38 172 38l124 1v17q0 130 -135 130q-63 0 -98 -26q-39 -27 -48 -80h-79q12 89 76 132q56 40 154 40q110 0 164 -58q46 -52 46 -141v-332h-75v87q-31 -43 -80 -70q-59 -31 -128 -31q-78 0 -124 40q-48 40 -48 109zM124 136q0 -38 28 -62 q29 -23 79 -23q77 0 133 48q53 48 53 111v45l-119 -1q-174 0 -174 -118zM136 589l112 127h68l107 -127h-54l-88 89l-87 -89h-58z" />
<glyph unicode="&#xe3;" horiz-adv-x="559" d="M42 135q0 99 79 144q64 38 172 38l124 1v17q0 130 -135 130q-63 0 -98 -26q-39 -27 -48 -80h-79q12 89 76 132q56 40 154 40q110 0 164 -58q46 -52 46 -141v-332h-75v87q-31 -43 -80 -70q-59 -31 -128 -31q-78 0 -124 40q-48 40 -48 109zM124 136q0 -38 28 -62 q29 -23 79 -23q77 0 133 48q53 48 53 111v45l-119 -1q-174 0 -174 -118zM127 640q38 59 85 59q27 0 70 -22q43 -23 63 -23q23 0 49 38l38 -29q-38 -59 -84 -59q-28 0 -72 23q-41 22 -62 22q-23 0 -50 -37z" />
<glyph unicode="&#xe4;" horiz-adv-x="559" d="M42 135q0 99 79 144q64 38 172 38l124 1v17q0 130 -135 130q-63 0 -98 -26q-39 -27 -48 -80h-79q12 89 76 132q56 40 154 40q110 0 164 -58q46 -52 46 -141v-332h-75v87q-31 -43 -80 -70q-59 -31 -128 -31q-78 0 -124 40q-48 40 -48 109zM124 136q0 -38 28 -62 q29 -23 79 -23q77 0 133 48q53 48 53 111v45l-119 -1q-174 0 -174 -118zM145 651q0 21 13 33q12 12 32 12t32 -12q13 -13 13 -33q0 -19 -13 -32t-32 -13t-32 13q-13 12 -13 32zM324 651q0 21 13 33q12 12 32 12q19 0 32 -12q13 -13 13 -33q0 -19 -13 -32t-32 -13t-32 13 q-13 12 -13 32z" />
<glyph unicode="&#xe5;" horiz-adv-x="559" d="M42 135q0 99 79 144q64 38 172 38l124 1v17q0 130 -135 130q-63 0 -98 -26q-39 -27 -48 -80h-79q12 89 76 132q56 40 154 40q110 0 164 -58q46 -52 46 -141v-332h-75v87q-31 -43 -80 -70q-59 -31 -128 -31q-78 0 -124 40q-48 40 -48 109zM124 136q0 -38 28 -62 q29 -23 79 -23q77 0 133 48q53 48 53 111v45l-119 -1q-174 0 -174 -118zM194 652q0 36 25 60q25 25 61 25q35 0 60 -25t25 -60t-25 -60q-26 -26 -60 -26q-35 0 -61 26q-25 24 -25 60zM228 652q0 -22 15 -37q16 -14 37 -14q20 0 36 14q15 15 15 37q0 21 -15 36t-36 15 q-22 0 -37 -15t-15 -36z" />
<glyph unicode="&#xe6;" horiz-adv-x="910" d="M32 132q0 177 249 177h122v27q0 54 -27 87q-33 42 -106 42q-125 0 -144 -106h-79q12 89 75 132q56 40 153 40q135 0 177 -98q4 7 14 19q63 79 168 79q130 0 193 -94q45 -71 51 -190h-401q3 -96 47 -146q42 -48 115 -48q110 0 149 113h81q-18 -72 -66 -120 q-63 -60 -162 -60q-111 0 -173 69q-20 23 -31 47q-43 -50 -93 -80q-63 -36 -142 -36q-78 0 -123 39q-47 38 -47 107zM114 133q0 -36 27 -60q28 -22 79 -22q74 0 129 47q54 46 54 108v41h-117q-172 0 -172 -114zM478 309h316q-6 67 -41 107q-42 48 -118 48q-72 0 -113 -47 q-37 -40 -44 -108z" />
<glyph unicode="&#xe7;" horiz-adv-x="547" d="M42 256q0 119 61 193q66 82 182 82q96 0 154 -45q59 -46 73 -141h-79q-11 60 -48 90q-38 29 -100 29q-75 0 -119 -57q-42 -55 -42 -150q0 -96 41 -149q41 -55 119 -55q133 0 151 134h80q-18 -101 -77 -151q-52 -43 -133 -49l-14 -40q10 1 22 1q38 0 62 -18q27 -18 27 -56 q0 -46 -39 -69q-31 -17 -79 -17q-50 0 -95 24l15 31q41 -19 73 -19q33 0 52 13q17 12 17 36q0 43 -65 43q-17 0 -45 -4l27 75q-101 6 -160 77q-61 73 -61 192z" />
<glyph unicode="&#xe8;" horiz-adv-x="555" d="M32 259q0 116 65 191q66 81 178 81q125 0 188 -84q57 -75 60 -211h-408q6 -88 47 -135q42 -48 116 -48q63 0 103 32q32 26 52 81h80q-18 -74 -70 -122q-66 -58 -165 -58q-111 0 -178 73q-68 74 -68 200zM117 298h323q-15 166 -163 166q-69 0 -111 -45q-41 -44 -49 -121z M169 722h91l100 -146h-55z" />
<glyph unicode="&#xe9;" horiz-adv-x="555" d="M32 259q0 116 65 191q66 81 178 81q125 0 188 -84q57 -75 60 -211h-408q6 -88 47 -135q42 -48 116 -48q63 0 103 32q32 26 52 81h80q-18 -74 -70 -122q-66 -58 -165 -58q-111 0 -178 73q-68 74 -68 200zM117 298h323q-15 166 -163 166q-69 0 -111 -45q-41 -44 -49 -121z M195 576l100 146h92l-137 -146h-55z" />
<glyph unicode="&#xea;" horiz-adv-x="555" d="M32 259q0 116 65 191q66 81 178 81q125 0 188 -84q57 -75 60 -211h-408q6 -88 47 -135q42 -48 116 -48q63 0 103 32q32 26 52 81h80q-18 -74 -70 -122q-66 -58 -165 -58q-111 0 -178 73q-68 74 -68 200zM117 298h323q-15 166 -163 166q-69 0 -111 -45q-41 -44 -49 -121z M136 589l108 127h68l107 -127h-54l-87 89l-88 -89h-54z" />
<glyph unicode="&#xeb;" horiz-adv-x="555" d="M32 259q0 116 65 191q66 81 178 81q125 0 188 -84q57 -75 60 -211h-408q6 -88 47 -135q42 -48 116 -48q63 0 103 32q32 26 52 81h80q-18 -74 -70 -122q-66 -58 -165 -58q-111 0 -178 73q-68 74 -68 200zM117 298h323q-15 166 -163 166q-69 0 -111 -45q-41 -44 -49 -121z M144 651q0 21 12 33t32 12t33 -12q12 -12 12 -33q0 -20 -12 -32q-15 -13 -33 -13q-19 0 -32 13q-12 12 -12 32zM322 651q0 21 12 33t33 12q20 0 32 -12q13 -13 13 -33q0 -19 -13 -32t-32 -13q-20 0 -33 13q-12 12 -12 32z" />
<glyph unicode="&#xec;" horiz-adv-x="256" d="M-10 722h91l100 -146h-55zM89 0v517h79v-517h-79z" />
<glyph unicode="&#xed;" horiz-adv-x="256" d="M76 576l100 146h91l-136 -146h-55zM89 0v517h79v-517h-79z" />
<glyph unicode="&#xee;" horiz-adv-x="256" d="M-13 589l107 127h68l108 -127h-54l-88 89l-87 -89h-54zM89 0v517h79v-517h-79z" />
<glyph unicode="&#xef;" horiz-adv-x="256" d="M-6 651q0 20 13 33q12 12 32 12t32 -12q13 -13 13 -33q0 -19 -13 -32t-32 -13t-32 13t-13 32zM89 0v517h79v-517h-79zM172 651q0 21 13 33q12 12 32 12q19 0 33 -12q12 -12 12 -33q0 -20 -12 -32q-15 -13 -33 -13q-19 0 -32 13q-13 12 -13 32z" />
<glyph unicode="&#xf0;" horiz-adv-x="588" d="M42 243q0 111 68 183q67 76 174 76q84 0 135 -52q-26 67 -106 150l-16 16q-64 -24 -150 -67l-26 47q59 31 132 62q-44 39 -84 62l50 38q65 -37 106 -71q75 27 127 40l19 -52q-48 -12 -99 -30q42 -43 77 -92q97 -139 97 -301q0 -116 -66 -189q-71 -77 -189 -77 q-115 0 -184 75q-65 71 -65 182zM124 243q0 -86 44 -136q45 -54 123 -54q79 0 128 55q44 55 44 140t-47 135q-48 51 -126 51q-76 0 -121 -54q-45 -51 -45 -137z" />
<glyph unicode="&#xf1;" horiz-adv-x="559" d="M62 0v517h80v-76q27 43 69 66q42 24 93 24q193 0 193 -213v-318h-80v312q0 151 -136 151q-54 0 -93 -39q-42 -42 -46 -112v-312h-80zM128 640q37 59 84 59q29 0 70 -22q43 -23 64 -23q22 0 49 38l37 -29q-36 -59 -84 -59q-28 0 -71 23q-41 22 -62 22q-24 0 -51 -37z" />
<glyph unicode="&#xf2;" horiz-adv-x="586" d="M42 258q0 117 65 191q69 82 186 82q116 0 186 -82q65 -76 65 -191q0 -114 -65 -191q-69 -81 -186 -81t-186 81q-65 75 -65 191zM124 258q0 -90 44 -146q47 -59 125 -59q77 0 125 59q44 58 44 146q0 90 -44 148q-48 58 -125 58q-79 0 -125 -58q-44 -56 -44 -148zM156 722 h91l101 -146h-55z" />
<glyph unicode="&#xf3;" horiz-adv-x="586" d="M42 258q0 117 65 191q69 82 186 82q116 0 186 -82q65 -76 65 -191q0 -114 -65 -191q-69 -81 -186 -81t-186 81q-65 75 -65 191zM124 258q0 -90 44 -146q47 -59 125 -59q77 0 125 59q44 58 44 146q0 90 -44 148q-48 58 -125 58q-79 0 -125 -58q-44 -56 -44 -148zM239 576 l101 146h91l-137 -146h-55z" />
<glyph unicode="&#xf4;" horiz-adv-x="586" d="M42 258q0 117 65 191q69 82 186 82q116 0 186 -82q65 -76 65 -191q0 -114 -65 -191q-69 -81 -186 -81t-186 81q-65 75 -65 191zM124 258q0 -90 44 -146q47 -59 125 -59q77 0 125 59q44 58 44 146q0 90 -44 148q-48 58 -125 58q-79 0 -125 -58q-44 -56 -44 -148zM152 589 l107 127h68l108 -127h-54l-88 89l-87 -89h-54z" />
<glyph unicode="&#xf5;" horiz-adv-x="586" d="M42 258q0 117 65 191q69 82 186 82q116 0 186 -82q65 -76 65 -191q0 -114 -65 -191q-69 -81 -186 -81t-186 81q-65 75 -65 191zM124 258q0 -90 44 -146q47 -59 125 -59q77 0 125 59q44 58 44 146q0 90 -44 148q-48 58 -125 58q-79 0 -125 -58q-44 -56 -44 -148zM141 640 q37 59 84 59q29 0 70 -22q43 -23 64 -23q22 0 49 38l37 -29q-36 -59 -84 -59q-28 0 -71 23q-41 22 -62 22q-24 0 -51 -37z" />
<glyph unicode="&#xf6;" horiz-adv-x="586" d="M42 258q0 117 65 191q69 82 186 82q116 0 186 -82q65 -76 65 -191q0 -114 -65 -191q-69 -81 -186 -81t-186 81q-65 75 -65 191zM124 258q0 -90 44 -146q47 -59 125 -59q77 0 125 59q44 58 44 146q0 90 -44 148q-48 58 -125 58q-79 0 -125 -58q-44 -56 -44 -148zM159 651 q0 21 12 33t33 12q18 0 32 -12q13 -13 13 -33q0 -19 -13 -32q-15 -13 -32 -13q-20 0 -33 13q-12 12 -12 32zM338 651q0 21 12 33t32 12t33 -12q13 -13 13 -33q0 -19 -13 -32q-15 -13 -33 -13q-19 0 -32 13q-12 12 -12 32z" />
<glyph unicode="&#xf7;" horiz-adv-x="605" d="M50 225v68h505v-68h-505zM242 79q0 27 18 43q16 16 42 16q27 0 44 -16q17 -17 17 -43q0 -24 -17 -43q-19 -17 -44 -17t-42 17q-18 18 -18 43zM242 439q0 27 18 42q16 17 42 17q27 0 44 -17q17 -15 17 -42q0 -26 -17 -43q-19 -17 -44 -17t-42 17q-18 18 -18 43z" />
<glyph unicode="&#xf8;" horiz-adv-x="586" d="M42 258q0 117 65 191q69 82 186 82q73 0 128 -33l45 71l43 -26l-48 -75q12 -12 18 -19q65 -76 65 -191q0 -114 -65 -191q-69 -81 -186 -81q-66 0 -119 28l-42 -66l-43 26l43 68q-13 12 -25 25q-65 75 -65 191zM124 258q0 -90 44 -146q1 -2 5 -6l210 332q-38 26 -90 26 q-79 0 -125 -59q-44 -56 -44 -147zM212 74q34 -21 81 -21q77 0 125 59q45 57 45 146q0 87 -43 145z" />
<glyph unicode="&#xf9;" horiz-adv-x="560" d="M62 197v320h80v-316q0 -75 31 -110q32 -37 102 -37q50 0 92 40q42 42 51 108v315h80v-517h-80v80q-64 -94 -168 -94q-188 0 -188 211zM169 722h91l100 -146h-55z" />
<glyph unicode="&#xfa;" horiz-adv-x="560" d="M62 197v320h80v-316q0 -75 31 -110q32 -37 102 -37q50 0 92 40q42 42 51 108v315h80v-517h-80v80q-64 -94 -168 -94q-188 0 -188 211zM206 576l101 146h91l-137 -146h-55z" />
<glyph unicode="&#xfb;" horiz-adv-x="560" d="M62 197v320h80v-316q0 -75 31 -110q32 -37 102 -37q50 0 92 40q42 42 51 108v315h80v-517h-80v80q-64 -94 -168 -94q-188 0 -188 211zM138 589l108 127h68l108 -127h-55l-87 89l-87 -89h-55z" />
<glyph unicode="&#xfc;" horiz-adv-x="560" d="M62 197v320h80v-316q0 -75 31 -110q32 -37 102 -37q50 0 92 40q42 42 51 108v315h80v-517h-80v80q-64 -94 -168 -94q-188 0 -188 211zM146 651q0 21 12 33t32 12t33 -12q12 -12 12 -33q0 -20 -12 -32q-15 -13 -33 -13q-19 0 -32 13q-12 12 -12 32zM325 651q0 21 12 33 t32 12q19 0 33 -12q12 -12 12 -33q0 -20 -12 -32q-15 -13 -33 -13q-19 0 -32 13q-12 12 -12 32z" />
<glyph unicode="&#xfd;" horiz-adv-x="496" d="M5 517h87l158 -408l153 408h88l-283 -715h-87l89 210zM193 576l100 146h91l-136 -146h-55z" />
<glyph unicode="&#xfe;" horiz-adv-x="586" d="M62 -198v912h75v-282q55 99 172 99q112 0 176 -83q59 -76 59 -191q0 -113 -58 -189q-64 -82 -173 -82q-111 0 -171 108v-292h-80zM139 252q0 -91 44 -145q43 -55 113 -55q83 0 127 59q39 54 39 146q0 90 -37 146q-43 62 -126 62q-79 0 -121 -61q-39 -54 -39 -142v-10z " />
<glyph unicode="&#xff;" horiz-adv-x="496" d="M5 517h87l158 -408l153 408h88l-283 -715h-87l89 210zM113 651q0 21 13 33q12 12 32 12t33 -12q12 -12 12 -33q0 -20 -12 -32q-15 -13 -33 -13q-19 0 -32 13q-13 12 -13 32zM292 651q0 21 13 33q12 12 32 12q19 0 33 -12q12 -12 12 -33q0 -20 -12 -32q-15 -13 -33 -13 q-19 0 -32 13q-13 12 -13 32z" />
<glyph unicode="&#x152;" horiz-adv-x="999" d="M21 357q0 162 78 264q80 107 222 107q101 0 172 -55v41h465v-71h-383v-239h359v-71h-359v-262h400v-71h-482v41q-73 -55 -172 -55q-141 0 -222 107q-78 102 -78 264zM94 357q0 -134 59 -214q60 -84 168 -84q116 0 172 89v417q-57 90 -172 90q-108 0 -167 -83 q-60 -82 -60 -215z" />
<glyph unicode="&#x153;" horiz-adv-x="934" d="M42 258q0 116 63 194q64 79 171 79q105 0 171 -81q12 -15 22 -32q8 15 21 32q64 81 170 81q118 0 178 -85q51 -75 54 -210h-379q5 -88 43 -135q39 -48 107 -48q59 0 94 33q25 25 45 80h81q-18 -77 -65 -122q-61 -58 -155 -58q-104 0 -168 73q-16 19 -27 37 q-9 -15 -21 -30q-66 -80 -171 -80q-106 0 -172 80q-62 75 -62 192zM124 258q0 -92 41 -148q41 -57 111 -57q68 0 110 57q41 58 41 148q0 91 -41 149q-42 57 -110 57q-70 0 -111 -57q-41 -56 -41 -149zM514 298h295q-15 166 -147 166q-63 0 -102 -45q-38 -44 -46 -121z" />
<glyph unicode="&#x178;" horiz-adv-x="662" d="M5 714h99l227 -348l227 348h99l-285 -424v-290h-82v290zM197 825q0 21 12 33q13 13 33 13q19 0 32 -13t13 -33q0 -17 -13 -32q-12 -12 -32 -12q-21 0 -33 12q-12 13 -12 32zM375 825q0 21 13 33q13 13 32 13q17 0 32 -13q13 -13 13 -33q0 -17 -13 -32q-12 -12 -32 -12 t-32 12q-13 13 -13 32z" />
<glyph unicode="&#x2c6;" horiz-adv-x="500" d="M109 766l107 127h68l108 -127h-54l-88 89l-87 -89h-54z" />
<glyph unicode="&#x2dc;" horiz-adv-x="500" d="M98 819q39 61 84 61q27 0 70 -23t64 -23q23 0 49 37l37 -28q-36 -59 -84 -59q-27 0 -71 22q-42 23 -62 23q-25 0 -51 -38z" />
<glyph unicode="&#x2000;" horiz-adv-x="455" vert-adv-y="0" />
<glyph unicode="&#x2001;" horiz-adv-x="910" vert-adv-y="0" />
<glyph unicode="&#x2002;" horiz-adv-x="455" vert-adv-y="0" />
<glyph unicode="&#x2003;" horiz-adv-x="910" vert-adv-y="0" />
<glyph unicode="&#x2004;" horiz-adv-x="303" vert-adv-y="0" />
<glyph unicode="&#x2005;" horiz-adv-x="227" vert-adv-y="0" />
<glyph unicode="&#x2006;" horiz-adv-x="151" vert-adv-y="0" />
<glyph unicode="&#x2007;" horiz-adv-x="151" vert-adv-y="0" />
<glyph unicode="&#x2008;" horiz-adv-x="113" vert-adv-y="0" />
<glyph unicode="&#x2009;" horiz-adv-x="182" vert-adv-y="0" />
<glyph unicode="&#x200a;" horiz-adv-x="50" vert-adv-y="0" />
<glyph unicode="&#x2010;" horiz-adv-x="605" d="M50 225v68h505v-68h-505z" />
<glyph unicode="&#x2011;" horiz-adv-x="605" d="M50 225v68h505v-68h-505z" />
<glyph unicode="&#x2012;" horiz-adv-x="605" d="M50 225v68h505v-68h-505z" />
<glyph unicode="&#x2013;" horiz-adv-x="824" d="M50 319v82h724v-82h-724z" />
<glyph unicode="&#x2014;" horiz-adv-x="1000" d="M0 326v68h1000v-68h-1000z" />
<glyph unicode="&#x2018;" horiz-adv-x="340" d="M120 646q0 132 113 191l27 -43q-80 -50 -84 -129q4 2 16 2q27 0 44 -16q17 -15 17 -42t-17 -44q-19 -16 -44 -16q-72 0 -72 97z" />
<glyph unicode="&#x2019;" horiz-adv-x="340" d="M80 592q78 51 84 129q-8 -2 -16 -2q-25 0 -44 16q-17 16 -17 42q0 28 17 44q16 16 44 16q72 0 72 -97q0 -129 -113 -191z" />
<glyph unicode="&#x201a;" horiz-adv-x="340" d="M80 -71q78 51 84 128q-2 0 -7.5 -0.5t-8.5 -0.5q-25 0 -44 16q-17 16 -17 42q0 28 17 44t44 16q72 0 72 -97q0 -129 -113 -191z" />
<glyph unicode="&#x201c;" horiz-adv-x="537" d="M120 646q0 132 113 191l27 -43q-80 -50 -84 -129q4 2 16 2q27 0 44 -16q17 -15 17 -42t-17 -44q-19 -16 -44 -16q-72 0 -72 97zM317 646q0 131 114 191l26 -43q-78 -50 -84 -129q4 2 16 2q27 0 44 -16q17 -15 17 -42t-17 -44q-19 -16 -43 -16q-73 0 -73 97z" />
<glyph unicode="&#x201d;" horiz-adv-x="537" d="M80 592q78 51 84 129q-8 -2 -16 -2q-25 0 -44 16q-17 16 -17 42q0 28 17 44q16 16 44 16q72 0 72 -97q0 -129 -113 -191zM277 592q78 51 84 129q-8 -2 -16 -2q-25 0 -43 16q-18 17 -18 42q0 28 17 44q16 16 44 16q72 0 72 -97q0 -129 -113 -191z" />
<glyph unicode="&#x201e;" horiz-adv-x="537" d="M80 -71q78 51 84 128q-2 0 -7.5 -0.5t-8.5 -0.5q-25 0 -44 16q-17 16 -17 42q0 28 17 44t44 16q72 0 72 -97q0 -129 -113 -191zM277 -71q78 51 84 128q-2 0 -7.5 -0.5t-8.5 -0.5q-25 0 -43 16t-18 42q0 28 17 44t44 16q72 0 72 -97q0 -129 -113 -191z" />
<glyph unicode="&#x2022;" horiz-adv-x="500" d="M85 360q0 69 48 117t117 48q68 0 118 -48q48 -48 48 -117q0 -68 -48 -118q-50 -48 -118 -48q-69 0 -117 48q-48 50 -48 118z" />
<glyph unicode="&#x2026;" horiz-adv-x="1000" d="M106 60q0 26 18 42q16 17 42 17q27 0 44 -17t17 -42q0 -26 -17 -43q-19 -17 -44 -17t-42 17q-18 18 -18 43zM440 60q0 26 17 42q17 17 43 17q27 0 44 -17t17 -42q0 -26 -17 -43q-19 -17 -44 -17q-24 0 -43 17q-17 17 -17 43zM773 60q0 26 17 42q17 17 43 17t43 -17 q18 -16 18 -42t-18 -43q-19 -17 -43 -17t-43 17q-17 17 -17 43z" />
<glyph unicode="&#x202f;" horiz-adv-x="182" vert-adv-y="0" />
<glyph unicode="&#x2039;" horiz-adv-x="385" d="M50 331v61l285 197v-71l-227 -157l227 -156v-72z" />
<glyph unicode="&#x203a;" horiz-adv-x="385" d="M50 133v72l227 156l-227 157v71l285 -197v-61z" />
<glyph unicode="&#x205f;" horiz-adv-x="227" vert-adv-y="0" />
<glyph unicode="&#x20ac;" horiz-adv-x="700" d="M0 265l15 50h83q-1 14 -1 41q0 29 1 42h-98l15 50h88q15 103 65 170q79 110 229 110q107 0 178 -62q69 -59 87 -160h-81q-18 74 -67 111q-47 38 -119 38q-109 0 -165 -89q-31 -46 -44 -118h360l-15 -50h-351q-1 -13 -1 -42q0 -27 1 -41h328l-15 -50h-307q10 -63 38 -112 q56 -94 173 -94q73 0 123 44q46 42 66 117h82q-24 -110 -97 -172q-74 -62 -173 -62q-153 0 -232 115q-49 70 -62 164h-104z" />
<glyph unicode="&#x2122;" horiz-adv-x="893" d="M22 669v59h341v-59h-138v-341h-65v341h-138zM401 328v400h79l140 -316h3l139 316h79v-400h-64v291h-3l-126 -291h-54l-126 291h-3v-291h-64z" />
<glyph unicode="&#xfb01;" horiz-adv-x="608" d="M5 450v67h130v59q0 65 33 101q34 37 101 37h99v-69h-89q-35 0 -49 -17q-15 -16 -15 -54v-57h315v-517h-79v450h-236v-450h-80v450h-130z" />
<glyph unicode="&#xfb02;" horiz-adv-x="608" d="M5 450v67h130v59q0 65 33 101q34 37 101 37h261v-714h-79v645h-172q-35 0 -49 -17q-15 -16 -15 -54v-57h146v-67h-146v-450h-80v450h-130z" />
<glyph unicode="&#xfb03;" horiz-adv-x="921" d="M5 450v67h130v59q0 65 33 101q34 37 101 37h99v-69h-89q-35 0 -49 -17q-15 -16 -15 -54v-57h233v59q0 64 33 100q32 38 101 38h99v-69h-90q-34 0 -48 -17q-16 -16 -16 -54v-57h316v-517h-80v450h-236v-450h-79v450h-233v-450h-80v450h-130z" />
<glyph unicode="&#xfb04;" horiz-adv-x="921" d="M5 450v67h130v59q0 65 33 101q34 37 101 37h99v-69h-89q-35 0 -49 -17q-15 -16 -15 -54v-57h233v59q0 64 33 100q32 38 101 38h261v-714h-80v645h-172q-34 0 -48 -17q-16 -16 -16 -54v-57h147v-67h-147v-450h-79v450h-233v-450h-80v450h-130z" />
</font>
</defs>
</svg>
